<svg width="45" height="26" viewBox="0 0 45 26" fill="none" xmlns="http://www.w3.org/2000/svg">
<g clip-path="url(#clip0_21466_10340)">
<path d="M0.318237 17.7387H4.04207L6.31721 6.61978H9.10985L9.5216 4.55125H6.78257L6.88636 4.08589C7.04132 3.20878 7.35172 2.22397 8.74779 2.22397C9.57618 2.22397 10.3514 2.27562 11.1267 2.63768L11.5409 0.465845C10.6769 0.160986 9.7678 0.00351131 8.85158 0C5.85185 0 3.78381 1.75861 3.00757 4.55125H1.7148L1.30109 6.61978H2.59386L0.318237 17.7387Z" fill="#EA1D2C"/>
<path d="M12.1095 15.0498C16.5053 15.0498 19.5567 11.0672 19.5567 7.80924C19.5567 5.37866 17.3327 4.34415 15.1609 4.34415C10.3499 4.34415 7.71369 8.63909 7.71369 11.5847C7.71369 14.0153 9.98932 15.0498 12.1095 15.0498ZM23.9018 15.0498C28.2976 15.0498 31.349 11.0672 31.349 7.80924C31.349 5.37866 29.0734 4.34415 26.9011 4.34415C22.0915 4.34415 19.4544 8.63665 19.4544 11.5847C19.4544 14.0153 21.7816 15.0498 23.9018 15.0498ZM37.3996 14.8427H41.0713L44.0701 0.209045H40.3467L39.4672 4.5532L37.9157 4.39824C34.2956 4.39824 30.986 9.05231 30.986 12.3624C30.986 13.7069 31.8631 15.0518 33.3649 15.0518C35.4851 15.0518 36.985 14.0173 37.6043 12.9828H37.8109L37.3996 14.8427ZM25.9177 22.5487C23.0276 24.9433 19.3154 26.1126 15.5746 25.8067C10.6613 25.4963 7.14455 21.7208 6.52423 17.7387H6.73084C7.86865 20.2238 10.6096 22.5487 13.9714 22.9102C17.3824 23.3239 21.4703 21.7729 23.6937 19.6522L21.2115 17.7387H28.7104L27.0536 25.7033L25.9674 22.6003L25.9177 22.5487Z" fill="#EA1D2C"/>
</g>
<defs>
<clipPath id="clip0_21466_10340">
<rect width="44.0267" height="26" fill="white"/>
</clipPath>
</defs>
</svg>
